<?xml version="1.0" encoding="UTF-8"?>
<svg id="Layer_2" data-name="Layer 2" xmlns="http://www.w3.org/2000/svg" viewBox="0 0 79.65 90.42">
  <defs>
    <style>
      .cls-1 {
        fill: #fff8ee;
      }
    </style>
  </defs>
  <g id="Layer_1-2" data-name="Layer 1">
    <path class="cls-1" d="M79.25,40.54c-1.55-7.12-5.42-13.9-14.2-16.45-.7-.18-.57-.42-.09-.75,6.28-4.29,6.99-13.3,2.28-18.88-1.94-2.34-4.78-3.91-7.9-4.3-12.89-1.78-19.6,15.33-9.3,22.95.59.42.85.7,0,.92-4,1.2-7.47,3.64-9.9,6.98-.36.51-.68.32-.99-.15-2.4-3.37-5.64-5.71-9.5-6.93-.2-.06-.56-.18-.52-.38,8.12-5.96,6.75-18.27-1.8-22.31C13.13-5.09,2.27,14.32,14.64,23.37c.69.47.2.64-.3.77-7.39,1.83-12.4,9.05-13.77,15.59-4.51,22.68,18.82,39.57,39.02,50.68,20.2-10.54,43.4-27.42,39.66-49.85v-.02ZM48.82,12.91c-.02-4.6,3.57-8.57,8.15-8.9,12.2-.63,12.69,18.01.28,17.85-1.09-.04-2.17-.31-3.14-.73-3.19-1.4-5.31-4.66-5.3-8.18v-.03ZM50.53,27.86c4.11-1.41,9.34-1.29,14.28.13,3.15.96,5.76,2.91,7.74,5.77.3.39.38.82-.03,1.17-4.66,4.18-10.42,9.3-13.54,12.29-.28.24-.52.1-.8-.14-4.88-4.62-10.37-8.81-15.11-12.48-.19-.14-.41-.35-.4-.59,0-.18.13-.4.25-.57,1.85-2.64,4.46-4.54,7.57-5.58h.03ZM39.82,31.85s0,0,0,0h0s.02.02.02.02c0,0-.01-.01-.02-.02,0,0-.02.01-.02.02l.02-.02ZM39.84,36.82c.21,0,.43.16.61.3,4.68,3.64,9.94,7.63,14.74,12.13.18.16.42.41.4.61,0,.21-.22.43-.39.58-2.64,2.32-5.84,5.13-7.76,6.93-.32.34-.59.33-.92,0-1.68-1.54-4.29-3.77-6.25-5.51-.4-.4-.77-.33-1.16.05-2.14,1.89-4.99,4.49-6.14,5.6-.26.3-.52.1-.76-.14-1.92-1.81-5.14-4.63-7.78-6.96-.17-.14-.37-.35-.37-.56-.01-.21.23-.45.4-.61,4.81-4.5,10.06-8.48,14.74-12.13.18-.14.4-.3.61-.3h.02ZM13.09,12.91c-.02-4.6,3.57-8.57,8.15-8.9,12.2-.63,12.69,18.01.28,17.85-1.09-.04-2.17-.31-3.14-.73-3.19-1.4-5.31-4.66-5.3-8.18v-.03ZM6.85,34.31c3.45-6.26,10.69-7.64,17.09-7.54,6.52.3,10.43,3.51,12.73,7.06.18.3.15.56-.14.8-4.66,3.64-10.07,7.74-14.9,12.32-.34.33-.69.61-1.05.18-3-2.89-8.72-7.99-13.3-12.09-.21-.18-.46-.43-.43-.7v-.02ZM9,61.06c-4.07-5.97-6.9-14.3-4.28-22.51.22-.57.51-.59.9-.2,3.84,3.56,9.19,8.08,12.66,11.73.15.3-.1.72-.31,1-3.44,4.77-5.4,9.73-4.7,14.73.03.25.15.82-.23.48-1.57-1.64-2.82-3.37-4.04-5.21v-.02ZM19.28,69.37c-4.23-4.22-2.12-10.5,1.19-15.48.21-.32.57-.84.81-.29,1.77,3.88,2.73,11.85-1.21,15.45-.22.2-.51.46-.76.33h-.02ZM20.56,73.24c.02-.16.24-.28.4-.36,3.39-1.75,5.22-5.81,5.66-9.51.22-1.94.11-4.1-.18-5.93-.13-.72.21-.48.59-.14,1.04.91,2.06,1.81,2.93,2.62.35.31.3.7,0,1.08-3.64,4.82-5.82,10.1-4.99,15.18.03.17.09.51-.02.56-.17.06-.42-.17-.58-.28-1.21-.91-2.35-1.81-3.5-2.76-.14-.11-.32-.28-.32-.44v-.02ZM31.04,79.61c-4.23-4.22-2.12-10.5,1.18-15.48.21-.32.57-.84.81-.29,1.77,3.88,2.73,11.85-1.21,15.45-.22.2-.51.46-.76.33h-.02ZM39.7,86.06c-.29,0-.57-.12-.83-.27-1.73-.97-3.29-1.87-4.7-2.7-.63-.35-.44-.63.06-1.04,5.89-5.12,4.68-16.08,1.25-21.35-.21-.34-.11-.59.15-.81.72-.67,1.81-1.65,3.15-2.82.28-.24.63-.54.99-.54.23,0,.44.14.62.29,1.16.98,2.64,2.23,3.54,3.02.28.23.45.51.23.87-3.46,5.32-4.64,16.39,1.38,21.47.44.38.26.65-.14.87-1.45.84-3.05,1.76-4.84,2.76-.26.14-.54.26-.83.27h-.03ZM50.94,74.52c-.08,1.74-.75,3.21-1.84,4.63-.38.5-.69.72-1.23.18-3.99-3.58-3.02-11.61-1.25-15.49.24-.55.61-.02.81.27.73,1.08,1.36,2.19,1.88,3.3,1.05,2.22,1.78,4.76,1.63,7.08v.03ZM54.7,76.73c-.07-.04-.08-.18-.05-.37.91-5.25-1.28-10.48-4.99-15.4-.29-.39-.3-.77.05-1.07.87-.8,1.88-1.69,2.92-2.6.37-.32.73-.6.58.17-1,5.48.38,12.8,5.6,15.46.5.25.33.53,0,.8-1.2.98-2.38,1.9-3.64,2.82-.13.1-.34.23-.46.2h0ZM62.7,64.27c-.08,1.73-.75,3.21-1.84,4.63-.38.5-.69.72-1.23.18-3.99-3.58-3.02-11.61-1.25-15.49.24-.55.61-.02.81.27.73,1.08,1.36,2.19,1.88,3.3,1.05,2.22,1.78,4.76,1.63,7.08v.03ZM70.71,61.02c-1.24,1.87-2.51,3.63-4.1,5.31-.39.36-.27-.2-.24-.47.73-5.01-1.23-9.98-4.67-14.76-.22-.29-.48-.71-.33-1.02,3.47-3.65,8.81-8.17,12.65-11.72.38-.37.68-.4.91.2,2.63,8.17-.16,16.51-4.2,22.45v.02Z"/>
  </g>
</svg>