<?xml version="1.0" encoding="UTF-8"?>
<svg id="Layer_2" data-name="Layer 2" xmlns="http://www.w3.org/2000/svg" viewBox="0 0 201.93 90.67">
  <defs>
    <style>
      .cls-1 {
        fill: #fff8ee;
      }
    </style>
  </defs>
  <g id="Layer_1-2" data-name="Layer 1">
    <path class="cls-1" d="M0,29.01c-.03-.33.15-.51.48-.51h6.69c.3,0,.48.15.51.48.54,5.61,3.12,9.12,10.71,9.12,5.82,0,9.51-1.98,9.51-6.84C27.9,20.64.84,28.68.84,12.33.84,4.62,6.93,0,16.98,0s16.05,3.96,17.13,12.75c.03.33-.15.51-.45.51h-6.72c-.3,0-.45-.15-.51-.48-.45-4.74-3.78-7.17-9.72-7.17-5.13,0-8.64,1.86-8.64,6.03,0,9.99,27.15,2.19,27.15,18.69,0,8.73-6.72,13.32-17.01,13.32C7.35,43.65.39,38.73,0,29.01Z"/>
    <path class="cls-1" d="M46.14,42.33l.33-20.4-.24-15.63h-11.67c-.3,0-.48-.18-.48-.48V1.29c0-.3.18-.48.48-.48h30.84c.3,0,.51.18.51.48v4.53c0,.3-.21.48-.51.48h-11.67l-.21,15.63.3,20.4c0,.33-.18.48-.48.48h-6.69c-.33,0-.51-.15-.51-.48Z"/>
    <path class="cls-1" d="M67.02.81h7.32c.27,0,.42.12.54.36l5.4,11.61,4.17,9.03,4.2-8.97,5.49-11.67c.12-.27.3-.36.57-.36h6.66c.36,0,.51.24.33.57l-13.95,27.42.15,13.53c0,.33-.18.48-.48.48h-6.51c-.3,0-.48-.15-.48-.48l.15-13.59L66.69,1.38c-.18-.33-.03-.57.33-.57Z"/>
    <path class="cls-1" d="M103.2,42.33l.18-20.85-.18-20.19c0-.33.15-.48.48-.48h15.87c10.05,0,15.99,4.29,15.99,12.72,0,6.51-3.72,10.56-9.84,12.06l10.68,16.62c.21.33.09.6-.33.6h-7.44c-.24,0-.48-.12-.6-.33l-4.74-7.86-5.34-8.28h-7.44l.15,15.99c0,.33-.18.48-.48.48h-6.48c-.33,0-.48-.15-.48-.48ZM120.15,20.94c4.71,0,8.28-2.07,8.28-7.26s-3.12-7.47-8.43-7.47h-9.39l-.15,14.73h9.69Z"/>
    <path class="cls-1" d="M138.69,42.33l.21-20.85-.18-20.19c0-.33.18-.48.48-.48h6.45c.3,0,.48.15.48.48l-.12,18.18,13.98-18.36c.15-.21.36-.3.6-.3h7.53c.42,0,.54.3.3.6l-13.59,16.29,16.68,24.51c.21.33.06.6-.33.6h-7.95c-.24,0-.45-.09-.6-.3l-4.47-6.78-8.04-12.24-4.08,4.92.09,13.92c0,.33-.18.48-.48.48h-6.48c-.3,0-.48-.15-.48-.48Z"/>
    <path class="cls-1" d="M173.13,42.33l.21-20.91-.21-20.13c0-.33.15-.48.48-.48h26.91c.3,0,.48.18.48.48v4.53c0,.3-.18.48-.48.48h-19.95l-.18,11.46h18.54c.3,0,.48.18.48.51v4.5c0,.3-.18.48-.48.48h-18.54l.18,14.07h20.43c.3,0,.48.18.48.48v4.53c0,.3-.18.48-.48.48h-27.39c-.33,0-.48-.15-.48-.48Z"/>
    <path class="cls-1" d="M14.79,89.35l.18-20.31-.18-20.73c0-.33.18-.48.48-.48h8.94c.27,0,.48.15.57.39l9.06,23.82,3.27,8.64,3.12-8.64,8.7-23.82c.09-.27.3-.39.57-.39h8.37c.3,0,.48.15.48.48l-.18,20.73.18,20.31c0,.33-.15.48-.48.48h-6.39c-.3,0-.51-.18-.51-.48l.03-17.88.27-13.71-11.61,31.68c-.09.27-.3.39-.57.39h-4.98c-.3,0-.51-.15-.6-.39l-12.36-32.52.3,14.55.03,17.88c0,.3-.18.48-.48.48h-5.73c-.33,0-.48-.15-.48-.48Z"/>
    <path class="cls-1" d="M62.12,89.26l14.52-41.04c.09-.24.27-.39.54-.39h8.94c.3,0,.48.15.57.39l14.28,41.04c.12.36-.06.57-.42.57h-6.57c-.27,0-.45-.12-.54-.39l-3.78-11.31h-16.44l-3.69,11.31c-.06.27-.27.39-.54.39h-6.45c-.36,0-.54-.21-.42-.57ZM87.77,72.28l-6.45-19.44-6.3,19.44h12.75Z"/>
    <path class="cls-1" d="M101.31,76.03c-.03-.33.15-.51.48-.51h6.69c.3,0,.48.15.51.48.54,5.61,3.12,9.12,10.71,9.12,5.82,0,9.51-1.98,9.51-6.84,0-10.62-27.06-2.58-27.06-18.93,0-7.71,6.09-12.33,16.14-12.33s16.05,3.96,17.13,12.75c.03.33-.15.51-.45.51h-6.72c-.3,0-.45-.15-.51-.48-.45-4.74-3.78-7.17-9.72-7.17-5.13,0-8.64,1.86-8.64,6.03,0,9.99,27.15,2.19,27.15,18.69,0,8.73-6.72,13.32-17.01,13.32-10.86,0-17.82-4.92-18.21-14.64Z"/>
    <path class="cls-1" d="M139.14,89.35l.21-20.85-.18-20.19c0-.33.18-.48.48-.48h6.45c.3,0,.48.15.48.48l-.12,18.18,13.98-18.36c.15-.21.36-.3.6-.3h7.53c.42,0,.54.3.3.6l-13.59,16.29,16.68,24.51c.21.33.06.6-.33.6h-7.95c-.24,0-.45-.09-.6-.3l-4.47-6.78-8.04-12.24-4.08,4.92.09,13.92c0,.33-.18.48-.48.48h-6.48c-.3,0-.48-.15-.48-.48Z"/>
    <path class="cls-1" d="M173.58,89.35l.21-20.91-.21-20.13c0-.33.15-.48.48-.48h26.91c.3,0,.48.18.48.48v4.53c0,.3-.18.48-.48.48h-19.95l-.18,11.46h18.54c.3,0,.48.18.48.51v4.5c0,.3-.18.48-.48.48h-18.54l.18,14.07h20.43c.3,0,.48.18.48.48v4.53c0,.3-.18.48-.48.48h-27.39c-.33,0-.48-.15-.48-.48Z"/>
    <path class="cls-1" d="M9.97,89.71l-4.89-.06-4.79.06c-.08,0-.11-.04-.11-.11v-1.52c0-.07.04-.11.11-.11l4.79.06,4.89-.06c.08,0,.11.04.11.11v1.52c0,.07-.04.11-.11.11Z"/>
    <path class="cls-1" d="M9.97,83.2l-4.81-.05-4.87.05c-.08,0-.11-.04-.11-.11v-1.54c0-.08.04-.11.11-.11l3.84.03v-4.79l-3.84.03c-.08,0-.11-.04-.11-.11v-1.54c0-.08.04-.12.11-.12l4.87.06,4.81-.06c.08,0,.11.04.11.12v1.54c0,.07-.04.11-.11.11l-4.55-.04v4.8l4.55-.04c.08,0,.11.04.11.11v1.54c0,.08-.04.11-.11.11Z"/>
    <path class="cls-1" d="M.18,73.7v-1.68c0-.06.03-.11.09-.13l6.17-1.97,2.08-.66-2.06-.65-6.19-1.95c-.06-.01-.09-.06-.09-.13v-1.47c0-.08.05-.12.13-.09l9.69,3.24c.06.02.09.06.09.13v2.05c0,.06-.03.11-.09.13l-9.69,3.29c-.08.03-.13-.01-.13-.1Z"/>
    <path class="cls-1" d="M9.97,63.83l-4.93-.05-4.75.05c-.08,0-.11-.04-.11-.11v-6.35c0-.07.04-.11.11-.11h1.07c.07,0,.11.04.11.11v4.71l2.7.04v-4.38c0-.07.04-.11.12-.11h1.06c.07,0,.11.04.11.11v4.38l3.32-.04v-4.82c0-.07.04-.11.11-.11h1.07c.07,0,.11.04.11.11v6.46c0,.08-.04.11-.11.11Z"/>
    <path class="cls-1" d="M9.97,55.71l-4.92-.04-4.76.04c-.08,0-.11-.04-.11-.11v-3.75c0-2.37,1.01-3.77,3-3.77,1.54,0,2.49.88,2.85,2.32l3.92-2.52c.08-.05.14-.02.14.08v1.76c0,.06-.03.11-.08.14l-1.85,1.12-1.95,1.26v1.76l3.77-.04c.08,0,.11.04.11.11v1.53c0,.08-.04.11-.11.11ZM4.93,51.71c0-1.11-.49-1.95-1.71-1.95s-1.76.74-1.76,1.99v2.22l3.48.04v-2.29Z"/>
  </g>
</svg>